<svg width="26" height="26" viewBox="0 0 26 26" fill="none" xmlns="http://www.w3.org/2000/svg">
<path d="M7.7342 5.93643C5.25084 6.51083 4.81134 9.7542 6.0011 11.8291C7.19101 13.9021 9.6313 15.3342 10.5828 17.4873C7.51932 18.7729 4.57876 20.3456 1.85126 22.1842C1.10686 22.6863 0.292074 23.4287 0.548063 24.2416C0.698565 24.7222 1.20844 25.0505 1.73992 25.1657C2.26946 25.2829 2.8242 25.2242 3.36739 25.1599C8.90445 24.5073 14.887 23.6828 20.17 22.0122C21.9402 21.4515 23.6948 20.5996 24.7264 19.1695C25.7599 17.7413 25.8342 15.6253 24.4821 14.4393C22.8858 13.0325 20.1544 13.5328 18.4059 14.7754C20.8187 11.0886 23.3255 6.8567 22.0829 2.71061C21.8817 2.04243 21.5456 1.35475 20.8969 1.00107C20.047 0.536063 18.8963 0.809607 18.1616 1.41927C16.7256 2.60903 16.114 4.37919 15.7467 6.06728C15.3871 7.72415 14.6858 9.50016 14.5998 11.1549C14.5294 12.5422 14.4573 13.9313 14.3869 15.3205C14.68 13.9099 14.3752 12.4386 13.7928 11.1062C12.8141 8.86709 11.038 5.17252 7.7342 5.93643Z" fill="#38333E"/>
</svg>
